<?xml version="1.0" encoding="UTF-8"?>
<svg width="64px" height="24px" viewBox="0 0 64 24" version="1.1" xmlns="http://www.w3.org/2000/svg" xmlns:xlink="http://www.w3.org/1999/xlink">
    <!-- Generator: Sketch 42 (36781) - http://www.bohemiancoding.com/sketch -->
    <title>edu-sharing Logo</title>
    <desc>Created with Sketch.</desc>
    <defs></defs>
    <g id="Page-1" stroke="none" stroke-width="1" fill="none" fill-rule="evenodd">
        <g id="Start" transform="translate(-157.000000, -66.000000)" fill="#FFFFFF">
            <g id="edu-sharing-Logo" transform="translate(157.000000, 66.000000)">
                <g id="Ebene_1">
                    <polyline id="Fill-12" points="10.8954957 13.4576657 8.47841529 9.25821567 10.8954957 5.05876567 15.7309875 5.05876567 18.1480679 9.25821567 15.7309875 13.4576657 10.8954957 13.4576657"></polyline>
                    <polyline id="Fill-13" points="2.4170804 8.45420918 0 4.25475918 2.4170804 0.0553091713 7.2525722 0.0553091713 9.6696526 4.25475918 7.2525722 8.45420918 2.4170804 8.45420918"></polyline>
                    <polyline id="Fill-14" points="2.4170804 18.4597732 0 14.2616722 2.4170804 10.0622222 7.2525722 10.0622222 9.6696526 14.2616722 7.2525722 18.4597732 2.4170804 18.4597732"></polyline>
                    <g id="edu-sharing" transform="translate(11.845824, 14.569245)">
                        <g id="Group">
                            <path d="M4.60656127,4.70802458 C4.61686728,4.83612237 4.57881054,4.96340921 4.50008196,5.06416168 C4.42370314,5.14307937 4.31750365,5.18485618 4.20859484,5.17882704 L1.40419594,5.17882704 C1.40213829,5.3610967 1.42543798,5.5427506 1.47340749,5.71842871 C1.51497818,5.87201042 1.59105506,6.01375703 1.69568306,6.13257299 C1.80362062,6.25024517 1.93846419,6.33919549 2.08832552,6.3915818 C2.27384322,6.45507957 2.46888661,6.48521138 2.66464481,6.48061607 C2.86539115,6.48290942 3.06591025,6.46619917 3.26359094,6.43070292 C3.41462838,6.40310939 3.5639522,6.36662451 3.71080405,6.32143358 C3.83680457,6.28096345 3.94106557,6.24454034 4.02358704,6.21216424 C4.08707951,6.18342951 4.15515982,6.16652182 4.22456674,6.16225109 C4.25149047,6.16155321 4.27811925,6.16806783 4.30176424,6.18113714 C4.3256037,6.19696955 4.34379918,6.22013993 4.35367291,6.24723835 C4.36994967,6.29043011 4.37938318,6.33595951 4.38162373,6.38213877 C4.38694769,6.43969628 4.38960967,6.51209284 4.38960967,6.59932844 L4.38960967,6.79628305 C4.38670947,6.84151072 4.38137758,6.88654441 4.37363778,6.93118347 C4.36838989,6.9649547 4.35806574,6.99771115 4.34302497,7.02831177 C4.32814236,7.05578408 4.30979836,7.08117839 4.28845433,7.103856 C4.23309915,7.14720113 4.17103033,7.18093485 4.10477751,7.20368231 C3.98039949,7.25350427 3.85276169,7.2945225 3.72278298,7.32644169 C3.54724123,7.37086482 3.36953476,7.40598655 3.19038641,7.43166402 C2.97832866,7.46219013 2.76436369,7.4770683 2.55017954,7.47618115 C2.18528322,7.48312844 1.8216756,7.43028629 1.47340749,7.31969667 C1.18233221,7.22555103 0.917660633,7.06228642 0.701432474,6.8434982 C0.485986062,6.61489733 0.327627075,6.33737206 0.239578454,6.03409569 C0.131848912,5.66375045 0.0806788167,5.27887538 0.0878454331,4.89283815 C0.0826803237,4.5125399 0.136578901,4.13378572 0.247564402,3.77046668 C0.342579647,3.45799777 0.500779061,3.16901754 0.712080405,2.92194305 C0.915638581,2.68940852 1.16932074,2.50753521 1.45344262,2.3904354 C1.76614881,2.26408025 2.10044389,2.20172651 2.43704527,2.20697084 C2.77466434,2.19832305 3.11067035,2.25699172 3.42597189,2.37964337 C3.68422026,2.48389955 3.91484931,2.64789428 4.09945355,2.85853985 C4.27858991,3.06938997 4.41070523,3.31695 4.48677205,3.5843041 C4.57164658,3.88008308 4.61334932,4.18686055 4.61055425,4.49488192 L4.61055425,4.70397757 L4.60656127,4.70802458 Z M3.34611241,4.33165242 C3.37342256,4.02425721 3.29590716,3.7166655 3.12649882,3.46019572 C2.94976969,3.23837803 2.67612822,3.11966033 2.39578454,3.14317973 C2.24668531,3.13957536 2.09887605,3.17194164 1.96454332,3.23761003 C1.84539454,3.2978012 1.74120195,3.38449684 1.65974629,3.49122281 C1.57544939,3.60407666 1.51229141,3.73164486 1.47340749,3.86759498 C1.42951968,4.01805375 1.40447797,4.17350996 1.39887197,4.33030341 L3.34078844,4.33030341 L3.34611241,4.33165242 Z" id="Shape"></path>
                            <path d="M10.0449922,7.17940024 C10.0463272,7.21361007 10.0375189,7.24744071 10.0197033,7.27652854 C9.99749183,7.30685829 9.96692923,7.32985578 9.93185791,7.34262974 C9.87795435,7.36280841 9.82148149,7.37507351 9.76415299,7.37905285 C9.69316678,7.38624754 9.60443402,7.38984489 9.49795471,7.38984489 C9.3914754,7.38984489 9.30274264,7.38624754 9.23175643,7.37905285 C9.17447955,7.3747058 9.11805665,7.36245155 9.06405151,7.34262974 C9.02749798,7.32987855 8.99521473,7.30697444 8.97088211,7.27652854 C8.95139133,7.24809479 8.94157854,7.21399562 8.94293129,7.17940024 L8.94293129,6.66138263 C8.72774867,6.90151166 8.4755828,7.10469886 8.19624511,7.26303849 C7.64510844,7.54640319 6.99432482,7.5494036 6.44066744,7.27113252 C6.20140149,7.13659738 5.99774934,6.94546149 5.84704527,6.71399379 C5.68730023,6.46415494 5.57448964,6.18654399 5.51429742,5.89514826 C5.44392036,5.57087017 5.40910342,5.23970465 5.41048009,4.9076772 C5.40643892,4.53016452 5.45118563,4.15374052 5.54357923,3.78800373 C5.61881571,3.48344898 5.74924981,3.19572107 5.92823575,2.9394801 C6.09141366,2.71015822 6.30757673,2.52488255 6.55779468,2.39987843 C6.82875242,2.26972815 7.12581196,2.20507912 7.42560108,2.21101785 C7.66894483,2.20734832 7.90971361,2.2618847 8.12836455,2.37020034 C8.35972562,2.49216787 8.57080653,2.6501175 8.75393051,2.83830479 L8.75393051,0.310270961 C8.75342175,0.276626694 8.7631841,0.243645162 8.78188133,0.215840668 C8.80880085,0.182476917 8.84495892,0.158045309 8.88569866,0.145692451 C8.94988705,0.123142745 9.01643639,0.108204161 9.08401638,0.101175313 C9.29336464,0.0803135532 9.50422706,0.0803135532 9.71357532,0.101175313 C9.78032223,0.107989999 9.84601492,0.12293692 9.90923106,0.145692451 C9.94951694,0.159008673 9.98542605,0.183272058 10.0130484,0.215840668 C10.0332844,0.24301523 10.0440513,0.276227523 10.0436612,0.310270961 L10.0436612,7.17805123 L10.0449922,7.17940024 Z M8.75393051,4.05915357 C8.60068787,3.85630572 8.42167325,3.67486843 8.22153395,3.5195519 C8.06876585,3.40013156 7.88203898,3.33389269 7.68913738,3.33069132 C7.53331601,3.32855549 7.38071407,3.37571011 7.2525722,3.46559173 C7.12847821,3.55385148 7.02750806,3.67146912 6.9584231,3.80823879 C6.88077599,3.95564094 6.82345236,4.11314481 6.7880562,4.27634324 C6.75174576,4.45385179 6.73346023,4.63466156 6.73348555,4.81594492 C6.73315967,5.00714356 6.74874312,5.19802952 6.78007025,5.38657368 C6.80664118,5.55819841 6.85775635,5.72498037 6.93180327,5.88165822 C6.99678073,6.01904481 7.09359191,6.13845665 7.21397345,6.22970129 C7.34371599,6.32251973 7.49980255,6.36988468 7.65852458,6.36460171 C7.74870559,6.36538257 7.8384747,6.3521899 7.92472286,6.32548059 C8.0168534,6.2935872 8.10385509,6.24813405 8.1829352,6.19058017 C8.27926406,6.12216058 8.36845816,6.04396355 8.44913348,5.95720245 C8.53786624,5.86097349 8.63946525,5.74316045 8.75393051,5.60376336 L8.75393051,4.05915357 L8.75393051,4.05915357 Z" id="Shape"></path>
                            <path d="M15.7216705,7.17940024 C15.7225078,7.21185611 15.7136967,7.24381725 15.6963817,7.27113252 C15.6734618,7.30189406 15.6419182,7.32493156 15.6058743,7.33723372 C15.5509394,7.35750055 15.4936964,7.37064519 15.4355074,7.37635485 C15.3471118,7.38613039 15.2582259,7.39063483 15.1693091,7.38984489 C15.0768469,7.39080016 14.9844083,7.38629585 14.8924629,7.37635485 C14.8350992,7.37089533 14.7787048,7.35774 14.724758,7.33723372 C14.6896485,7.324532 14.6590669,7.30152017 14.6369125,7.27113252 C14.619521,7.24385209 14.6107032,7.21186649 14.6116237,7.17940024 L14.6116237,6.63979856 C14.3897824,6.89272885 14.1268925,7.10533946 13.8343247,7.26843451 C13.5824687,7.40498406 13.3013907,7.47678357 13.015765,7.47753016 C12.7413734,7.48651328 12.4684849,7.43304083 12.2171702,7.32104567 C12.0109886,7.22388431 11.831742,7.07650721 11.6954215,6.89206235 C11.5596958,6.703258 11.4632435,6.48846664 11.4119204,6.26072839 C11.3495824,5.967383 11.3209972,5.6677036 11.3267369,5.36768762 L11.3267369,2.50914777 C11.3259658,2.47630358 11.3357784,2.44409965 11.3546877,2.41741549 C11.382227,2.38591635 11.4183507,2.36338554 11.4585051,2.35266329 C11.5238777,2.33218253 11.5912774,2.31906303 11.6594848,2.31354217 C11.7482175,2.3045488 11.8524785,2.30005212 11.9722677,2.30005212 C12.0775725,2.29919803 12.1828532,2.30370037 12.2877127,2.31354217 C12.3550311,2.31919389 12.4215347,2.33231271 12.4860304,2.35266329 C12.5267316,2.36389258 12.5635803,2.38630105 12.5925097,2.41741549 C12.6129298,2.44345373 12.6237552,2.47589239 12.6231225,2.50914777 L12.6231225,5.14779994 C12.6180242,5.33558842 12.6336495,5.52336617 12.6697072,5.70763668 C12.6963682,5.82628092 12.7446692,5.93883093 12.8121233,6.03949171 C12.8739348,6.13036602 12.9572145,6.20410595 13.0543638,6.25398337 C13.1612699,6.3064932 13.2789948,6.33239171 13.3977595,6.3295276 C13.5787276,6.32363554 13.753118,6.25936263 13.8955503,6.14606304 C14.0948107,5.98973237 14.2737037,5.80841841 14.4279469,5.60646136 L14.4279469,2.50375175 C14.4271758,2.47090756 14.4369884,2.43870363 14.4558977,2.41201947 C14.483437,2.38052033 14.5195607,2.35798952 14.559715,2.34726727 C14.6242081,2.32690614 14.6907129,2.31378709 14.7580328,2.30814615 C14.9675293,2.29061402 15.1780952,2.29061402 15.3875917,2.30814615 C15.4540672,2.31359348 15.5197113,2.32671893 15.5832474,2.34726727 C15.6229912,2.35894497 15.658869,2.38132238 15.6870648,2.41201947 C15.7074848,2.43805772 15.7183102,2.47049638 15.7176776,2.50375175 L15.7176776,7.17265521 L15.7216705,7.17940024 Z" id="Shape"></path>
                            <path d="M19.3113544,4.72151462 C19.3201597,4.86515925 19.3007052,5.00914504 19.2541218,5.14510194 C19.2245816,5.21962479 19.1523115,5.26755922 19.0731069,5.26516331 L16.9248868,5.26516331 C16.8433167,5.26864436 16.7685246,5.21937158 16.738548,5.14240393 C16.6923481,5.00728707 16.6728993,4.86426054 16.6813154,4.72151462 C16.6727529,4.5809716 16.6922177,4.44012075 16.738548,4.30737034 C16.7697071,4.23173316 16.8440897,4.18380714 16.9248868,4.18730897 L19.0731069,4.18730897 C19.1102294,4.18598116 19.147017,4.19483645 19.1795862,4.21294005 C19.2123689,4.23472809 19.2382499,4.2656435 19.2541218,4.30197432 C19.2777978,4.35488444 19.2926406,4.41141215 19.2980445,4.46925084 C19.3075425,4.55298585 19.3119874,4.63723051 19.3113544,4.72151462 Z" id="Shape"></path>
                            <path d="M23.5093013,5.86007415 C23.5140166,6.10231334 23.4634554,6.34238213 23.3615612,6.56155632 C23.2650606,6.76179789 23.1226702,6.93571878 22.9462919,7.06878189 C22.7556546,7.21059582 22.5402254,7.31450412 22.311409,7.37500584 C22.0509762,7.445451 21.7823518,7.47993725 21.5128142,7.47753016 C21.2030568,7.47944444 20.8947882,7.43396548 20.5984231,7.34262974 C20.4921286,7.30973685 20.388456,7.26869873 20.2883021,7.21987036 C20.2228098,7.18958794 20.1618688,7.15007609 20.1072872,7.102507 C20.063121,7.05407192 20.0327591,6.99439133 20.0194418,6.92983446 C19.9953953,6.81550064 19.985116,6.69863338 19.988829,6.58179138 C19.9880516,6.50071568 19.9916061,6.41965677 19.9994769,6.33897063 C20.0037792,6.28888281 20.0140585,6.23950859 20.0300897,6.19192918 C20.0386705,6.16234821 20.0569902,6.13663908 20.0819984,6.11908295 C20.1056203,6.10595309 20.1322655,6.09943446 20.1591959,6.10019689 C20.2194549,6.10853203 20.2769179,6.13118115 20.3269008,6.1662981 C20.400549,6.21036557 20.4928311,6.25848005 20.603747,6.31064154 C20.7284086,6.36872864 20.8569441,6.41786352 20.9884036,6.457683 C21.1501391,6.50494761 21.3178888,6.52767754 21.4861943,6.52513321 C21.5915681,6.52669937 21.6966998,6.51445694 21.7989773,6.4887101 C21.883616,6.46731468 21.964138,6.43175202 22.0372248,6.38348777 C22.1024564,6.34071201 22.1552847,6.28111609 22.1902888,6.21081524 C22.2257897,6.13547856 22.2435586,6.05282026 22.2421975,5.96934349 C22.2438138,5.87056963 22.2097287,5.77460752 22.1463661,5.69954265 C22.0750122,5.61838761 21.9892221,5.55157253 21.8934777,5.50258804 C21.7781016,5.44253055 21.6589408,5.39025548 21.536772,5.34610356 C21.4045602,5.29753941 21.2683554,5.24357924 21.1281577,5.18422306 C20.9880054,5.12477966 20.8515488,5.05675427 20.7195433,4.98052343 C20.5876379,4.90424288 20.4674616,4.80880053 20.3628376,4.69723255 C20.2542442,4.57960154 20.1684559,4.44231321 20.1099492,4.29253129 C20.0420441,4.11222909 20.0094924,3.9202329 20.0141178,3.72729854 C20.0129631,3.51478709 20.0584256,3.30467212 20.147217,3.11215264 C20.2329923,2.92568618 20.3600725,2.76180075 20.5185636,2.63325616 C20.694424,2.49320702 20.8949803,2.38836708 21.1095238,2.3243342 C21.363482,2.24818124 21.6273322,2.21134263 21.8921467,2.21506486 C22.0329153,2.21465793 22.1735132,2.22502981 22.31274,2.24609196 C22.4375416,2.26447676 22.5611123,2.29060662 22.6827556,2.3243342 C22.7785849,2.35054263 22.8720809,2.38483719 22.9622638,2.42685852 C23.0193816,2.45272983 23.0737832,2.48436626 23.1246448,2.52128881 C23.1527225,2.54233063 23.1762726,2.56895355 23.1938563,2.59953105 C23.2087564,2.6292396 23.2190803,2.6610854 23.2244691,2.69396134 C23.2311241,2.73038446 23.237779,2.7762506 23.243103,2.82886176 C23.248427,2.88147292 23.251089,2.95027214 23.251089,3.02986338 C23.251089,3.10945463 23.251089,3.20118691 23.243103,3.2605431 C23.2394306,3.30640534 23.230497,3.35167754 23.2164832,3.39544352 C23.2087452,3.4239817 23.1913019,3.44882839 23.1672365,3.46559173 C23.1453721,3.47827832 23.1205548,3.48479951 23.095363,3.48447779 C23.0435444,3.47721654 22.9939793,3.45832046 22.9502849,3.42916862 C22.8707038,3.38579022 22.7889602,3.34661668 22.7053825,3.31180526 C22.594333,3.26551396 22.4805323,3.22631614 22.3646487,3.19444189 C22.2205121,3.15576186 22.0718501,3.13715454 21.9227595,3.13913272 C21.8200047,3.13728533 21.7174757,3.14953751 21.6179625,3.17555584 C21.5410604,3.19558672 21.4690322,3.23139953 21.4063349,3.28077816 C21.3534086,3.32334727 21.3110223,3.37785555 21.2825527,3.43996065 C21.2547844,3.50177427 21.2407013,3.56899877 21.2412919,3.63691526 C21.2389879,3.73628625 21.27422,3.83279661 21.3397853,3.9067161 C21.4136094,3.98670268 21.5010853,4.05251197 21.5979976,4.1009727 C21.7153553,4.16322283 21.8367559,4.2173079 21.9613583,4.2628532 C22.0980067,4.31141735 22.2359862,4.36447818 22.3752966,4.4220357 C22.516693,4.48057096 22.6544787,4.54769327 22.7879039,4.62303732 C22.9225235,4.6988202 23.0454044,4.79427349 23.1525956,4.9063282 C23.2626708,5.02384213 23.3502294,5.16107452 23.4108079,5.31102945 C23.4796874,5.48548265 23.513185,5.67221224 23.5093013,5.86007415 L23.5093013,5.86007415 Z" id="Shape"></path>
                            <path d="M28.8825136,7.17940024 C28.8832592,7.21267322 28.8724212,7.24514978 28.8519008,7.27113252 C28.8239565,7.30242987 28.7880318,7.32530335 28.7480835,7.33723372 C28.6836909,7.35799633 28.617141,7.37112431 28.5497658,7.37635485 C28.461033,7.38534821 28.356772,7.38984489 28.2369828,7.38984489 C28.1171936,7.38984489 28.0111579,7.38534821 27.9188758,7.37635485 C27.8514974,7.37114845 27.7849447,7.35801994 27.7205581,7.33723372 C27.6806098,7.32530335 27.6446851,7.30242987 27.6167408,7.27113252 C27.5962204,7.24514978 27.5853824,7.21267322 27.586128,7.17940024 L27.586128,4.51376798 C27.5912854,4.33254468 27.5747492,4.15135591 27.5368813,3.97416631 C27.5086492,3.85605073 27.4604665,3.74377649 27.3944652,3.64231128 C27.3340074,3.55123425 27.2515224,3.47738642 27.1548868,3.42781962 C27.0479471,3.37540835 26.930246,3.34951507 26.811491,3.35227538 C26.6297281,3.35825037 26.4545151,3.42248299 26.3110382,3.53573995 C26.1096521,3.68960852 25.9304557,3.87123007 25.7786417,4.07534162 L25.7786417,7.17805123 C25.7793873,7.21132422 25.7685492,7.24380078 25.7480288,7.26978352 C25.7193097,7.30144719 25.6824286,7.32434263 25.6415495,7.33588472 C25.5770697,7.35629909 25.5105591,7.3694193 25.4432318,7.37500584 C25.3607103,7.3839992 25.255562,7.38849588 25.1277869,7.38849588 C25.0224822,7.38934319 24.9172018,7.38484086 24.8123419,7.37500584 C24.7450131,7.36943027 24.6785013,7.35630983 24.6140242,7.33588472 C24.5731451,7.32434263 24.536264,7.30144719 24.5075449,7.26978352 C24.4870245,7.24380078 24.4761864,7.21132422 24.4769321,7.17805123 L24.4769321,0.298129923 C24.4765419,0.264086485 24.4873088,0.230874193 24.5075449,0.203699631 C24.5385458,0.169620051 24.5788576,0.145669174 24.6233411,0.134900418 C24.6875295,0.112350712 24.7540788,0.0974121272 24.8216588,0.0903832799 C25.0310071,0.0695215197 25.2418695,0.0695215197 25.4512178,0.0903832799 C25.5187959,0.0974240799 25.5853438,0.112362362 25.6495355,0.134900418 C25.6908147,0.147704492 25.7277113,0.172011824 25.7560148,0.205048635 C25.7762508,0.232223197 25.7870177,0.265435489 25.7866276,0.299478928 L25.7866276,2.88012392 C25.984856,2.67499195 26.2162335,2.50572581 26.4707572,2.37964337 C26.6975679,2.27108202 26.9453169,2.21487207 27.1961475,2.21506486 C27.4705752,2.20561899 27.7435643,2.25911115 27.9947424,2.37154935 C28.200865,2.4688062 28.3800904,2.61616588 28.516491,2.80053267 C28.6527591,2.99084834 28.7500585,3.20688662 28.8026541,3.43591364 C28.8632972,3.72535188 28.8901016,4.02102097 28.8825136,4.31681337 L28.8825136,7.18074924 L28.8825136,7.17940024 Z" id="Shape"></path>
                            <path d="M34.088021,7.19423928 C34.0905043,7.23881193 34.0710695,7.28174301 34.0361124,7.30890464 C33.9877998,7.34249423 33.9319927,7.36335738 33.8737314,7.36960982 C33.7652052,7.38414734 33.6557603,7.39046021 33.5463075,7.38849588 C33.4333076,7.39089004 33.3202915,7.38457651 33.2082357,7.36960982 C33.1534346,7.36424676 33.10127,7.3431921 33.0578337,7.30890464 C33.0276646,7.27882315 33.0116721,7.23707296 33.013911,7.19423928 L33.013911,6.82326313 C32.8305151,7.0246638 32.6104064,7.18820025 32.3657181,7.30485762 C32.1123311,7.42227471 31.8363967,7.48124931 31.5578064,7.47753016 C31.3297659,7.4797377 31.1027065,7.44699161 30.8843247,7.38040186 C30.6896751,7.32169864 30.5086331,7.22398909 30.3519281,7.09306397 C30.2012415,6.96457442 30.0818956,6.80252353 30.0032084,6.6195635 C29.9166813,6.4109314 29.8745042,6.18616008 29.8794262,5.95990046 C29.8732895,5.71387172 29.9272414,5.47011933 30.0364832,5.25032426 C30.1459918,5.04452741 30.3083247,4.87254016 30.5063231,4.75254172 C30.7463313,4.60975599 31.0095591,4.51153703 31.2836221,4.46250582 C31.6395351,4.39543355 32.0010677,4.3638062 32.3630562,4.36807553 L32.8129313,4.36807553 L32.8129313,4.08613366 C32.8149136,3.95658435 32.8001471,3.82732982 32.7690085,3.70166746 C32.7430046,3.60111916 32.6932075,3.50851193 32.6239305,3.43186663 C32.550856,3.35503165 32.4590105,3.29917857 32.3577322,3.26998613 C32.2225976,3.23193443 32.082681,3.21420816 31.9424629,3.21737496 C31.7462005,3.21445865 31.550478,3.23897135 31.3608196,3.29022119 C31.2063374,3.33310756 31.055101,3.38720749 30.9082825,3.45210169 C30.7769581,3.51145788 30.6678168,3.56541804 30.5808587,3.61398219 C30.51616,3.65518876 30.4426978,3.68016171 30.366569,3.68682842 C30.3296376,3.68734134 30.2937483,3.67441864 30.2654137,3.65040531 C30.2334763,3.62168115 30.208825,3.58559183 30.1935402,3.54518298 C30.172294,3.49142448 30.1575458,3.43525719 30.1496174,3.37790646 C30.1386213,3.30514747 30.133281,3.23162546 30.1336455,3.15801878 C30.1310732,3.07183187 30.1395742,2.98567197 30.1589344,2.90170799 C30.1770755,2.83752842 30.2109603,2.77905179 30.2574277,2.73173346 C30.332567,2.66290443 30.4179021,2.60645837 30.5103161,2.56445694 C30.6469038,2.49690914 30.7884042,2.44008415 30.9335714,2.39448242 C31.1077106,2.33696859 31.2856117,2.29189142 31.465968,2.259582 C31.9710349,2.17765113 32.487079,2.19736209 32.9846292,2.31758918 C33.2176039,2.37711827 33.4339304,2.49020722 33.6168501,2.6480952 C33.7862606,2.80267783 33.9113402,3.00075955 33.9788797,3.22142198 C34.0595691,3.49110496 34.0977504,3.77200713 34.092014,4.05375756 L34.092014,7.19423928 L34.088021,7.19423928 Z M32.8129313,5.19501509 L32.3164715,5.19501509 C32.1378942,5.19265803 31.9595346,5.20847571 31.7840749,5.24223024 C31.6560948,5.26369426 31.5332656,5.30946317 31.4220452,5.37713065 C31.3352487,5.43327341 31.2649193,5.5120089 31.2184035,5.60511236 C31.1741317,5.70084085 31.1522678,5.80563787 31.154516,5.91133631 C31.1453965,6.08508857 31.2126501,6.25401621 31.3381928,6.37269574 C31.4808087,6.49141954 31.6624067,6.55116536 31.8466315,6.53997226 C32.0234371,6.54318633 32.1976381,6.49647771 32.3497462,6.40507184 C32.5249204,6.29133133 32.6823783,6.15174787 32.8169242,5.99092755 L32.8169242,5.19501509 L32.8129313,5.19501509 Z" id="Shape"></path>
                            <path d="M38.3432006,2.94352712 C38.3432006,3.06943417 38.3396513,3.17240816 38.3325526,3.25244907 C38.3286855,3.31629094 38.3184286,3.3795694 38.3019398,3.44130966 C38.2936514,3.47768012 38.274614,3.51062279 38.2473692,3.53573995 C38.22271,3.55392148 38.1926388,3.56296969 38.1621857,3.56137103 C38.1303022,3.56043273 38.0988034,3.55404773 38.0690163,3.54248497 L37.9532201,3.50336385 C37.909741,3.48897447 37.862269,3.4759341 37.810804,3.46424273 C37.7549165,3.45135271 37.6977524,3.44501577 37.6404371,3.44535667 C37.5659612,3.44584832 37.4922853,3.46096616 37.4234855,3.48987381 C37.3425524,3.52375823 37.2668086,3.56918361 37.198548,3.62477423 C37.1094012,3.69963538 37.0282139,3.78372996 36.9563075,3.875689 C36.8602853,3.99943494 36.7714042,4.12870547 36.6901092,4.2628532 L36.6901092,7.17400422 C36.6908548,7.2072772 36.6800168,7.23975377 36.6594964,7.2657365 C36.6307773,7.29740018 36.5938961,7.32029562 36.5530171,7.33183771 C36.4885373,7.35225207 36.4220267,7.36537228 36.3546994,7.37095883 C36.2721779,7.37995219 36.1670296,7.38444887 36.0392544,7.38444887 C35.9339498,7.38529618 35.8286694,7.38079385 35.7238095,7.37095883 C35.6564807,7.36538326 35.5899689,7.35226282 35.5254918,7.33183771 C35.4846127,7.32029562 35.4477316,7.29740018 35.4190124,7.2657365 C35.3984921,7.23975377 35.387654,7.2072772 35.3883996,7.17400422 L35.3883996,2.50914777 C35.3874792,2.47668152 35.396297,2.44469592 35.4136885,2.41741549 C35.4375053,2.38670903 35.4700144,2.36411543 35.5068579,2.35266329 C35.5627862,2.3326678 35.6208762,2.31953388 35.6798868,2.31354217 C35.7682809,2.30374797 35.8571678,2.29924348 35.946085,2.30005212 C36.0376591,2.29923392 36.129204,2.30373799 36.2202693,2.31354217 C36.2776902,2.31863829 36.3341327,2.33180482 36.3879742,2.35266329 C36.421833,2.36565955 36.4513674,2.3881101 36.4731576,2.41741549 C36.4904727,2.44473075 36.4992837,2.4766919 36.4984465,2.50914777 L36.4984465,3.09056857 C36.6013012,2.93830686 36.7151936,2.79401458 36.8391803,2.65888723 C36.9311631,2.55836915 37.0333243,2.46793785 37.1439773,2.3890864 C37.2321921,2.32817377 37.3298035,2.28258281 37.4328024,2.25418598 C37.5269662,2.22835467 37.6240758,2.21520126 37.7216276,2.21506486 C37.765994,2.21506486 37.8143533,2.21776287 37.8667056,2.22315889 C37.9203795,2.22864406 37.9737043,2.23720142 38.0264246,2.24878996 C38.0756985,2.2592363 38.1241795,2.27321106 38.1715027,2.29060909 C38.2044267,2.30150383 38.2351024,2.3184209 38.2620101,2.34052225 C38.2798919,2.35646777 38.2939954,2.37629538 38.3032708,2.39852943 C38.3135913,2.42648553 38.3211702,2.45540386 38.3258977,2.4848657 C38.3346721,2.53932477 38.3400069,2.59429609 38.3418696,2.64944421 C38.3427569,2.72049176 38.3432006,2.8185194 38.3432006,2.94352712 Z" id="Shape"></path>
                            <path d="M40.5433294,0.928114875 C40.5433294,1.19791571 40.4900897,1.38138028 40.3836104,1.47850858 C40.2771311,1.57563688 40.079257,1.62644937 39.7899882,1.63094605 C39.4971701,1.63094605 39.3001834,1.58193223 39.199028,1.4839046 C39.0978727,1.38587696 39.047295,1.20960708 39.047295,0.955094958 C39.047295,0.689790803 39.0996474,0.505876567 39.204352,0.403352249 C39.3090567,0.300827932 39.5078181,0.249565773 39.8006362,0.249565773 C40.089905,0.249565773 40.2860044,0.299478928 40.3889344,0.399305237 C40.4918644,0.499131546 40.5433294,0.675401425 40.5433294,0.928114875 Z M40.444836,7.17805123 C40.4455816,7.21132422 40.4347436,7.24380078 40.4142232,7.26978352 C40.3855041,7.30144719 40.3486229,7.32434263 40.3077439,7.33588472 C40.2432641,7.35629909 40.1767534,7.3694193 40.1094262,7.37500584 C40.0269047,7.3839992 39.9217564,7.38849588 39.7939812,7.38849588 C39.6886766,7.38934319 39.5833962,7.38484086 39.4785362,7.37500584 C39.4112075,7.36943027 39.3446957,7.35630983 39.2802185,7.33588472 C39.2393395,7.32434263 39.2024583,7.30144719 39.1737392,7.26978352 C39.1532188,7.24380078 39.1423808,7.21132422 39.1431264,7.17805123 L39.1431264,2.5199398 C39.1424938,2.48668443 39.1533192,2.45424577 39.1737392,2.42820752 C39.2028457,2.39672738 39.2395451,2.37347986 39.2802185,2.36075731 C39.3444263,2.33827698 39.4109676,2.32334019 39.4785362,2.31624017 C39.6878773,2.29522992 39.8987541,2.29522992 40.1080952,2.31624017 C40.1756619,2.32335193 40.242202,2.33828842 40.3064129,2.36075731 C40.3470864,2.37347986 40.3837857,2.39672738 40.4128922,2.42820752 C40.4333123,2.45424577 40.4441377,2.48668443 40.443505,2.5199398 L40.443505,7.17940024 L40.444836,7.17805123 Z" id="Shape"></path>
                            <path d="M46.1428102,7.17940024 C46.1435558,7.21267322 46.1327178,7.24514978 46.1121974,7.27113252 C46.0842531,7.30242987 46.0483284,7.32530335 46.0083801,7.33723372 C45.9439876,7.35799633 45.8774376,7.37112431 45.8100624,7.37635485 C45.7213296,7.38534821 45.6170686,7.38984489 45.4972794,7.38984489 C45.3774902,7.38984489 45.2714545,7.38534821 45.1791725,7.37635485 C45.111794,7.37114845 45.0452413,7.35801994 44.9808547,7.33723372 C44.9409064,7.32530335 44.9049818,7.30242987 44.8770374,7.27113252 C44.856517,7.24514978 44.845679,7.21267322 44.8464246,7.17940024 L44.8464246,4.51376798 C44.851582,4.33254468 44.8350459,4.15135591 44.7971779,3.97416631 C44.7689458,3.85605073 44.7207631,3.74377649 44.6547618,3.64231128 C44.594304,3.55123425 44.511819,3.47738642 44.4151834,3.42781962 C44.3082437,3.37540835 44.1905426,3.34951507 44.0717876,3.35227538 C43.8900248,3.35825037 43.7148117,3.42248299 43.5713348,3.53573995 C43.3699487,3.68960852 43.1907523,3.87123007 43.0389383,4.07534162 L43.0389383,7.17805123 C43.0396839,7.21132422 43.0288458,7.24380078 43.0083255,7.26978352 C42.9796064,7.30144719 42.9427252,7.32434263 42.9018462,7.33588472 C42.8373663,7.35629909 42.7708557,7.3694193 42.7035284,7.37500584 C42.621007,7.3839992 42.5158586,7.38849588 42.3880835,7.38849588 C42.2827788,7.38934319 42.1774984,7.38484086 42.0726385,7.37500584 C42.0053098,7.36943027 41.9387979,7.35630983 41.8743208,7.33588472 C41.8334418,7.32434263 41.7965606,7.30144719 41.7678415,7.26978352 C41.7473211,7.24380078 41.7364831,7.21132422 41.7372287,7.17805123 L41.7372287,2.50914777 C41.7363082,2.47668152 41.745126,2.44469592 41.7625175,2.41741549 C41.7863344,2.38670903 41.8188434,2.36411543 41.8556869,2.35266329 C41.9116152,2.3326678 41.9697053,2.31953388 42.0287158,2.31354217 C42.1171099,2.30374797 42.2059969,2.29924348 42.2949141,2.30005212 C42.3864881,2.29923392 42.4780331,2.30373799 42.5690983,2.31354217 C42.6265192,2.31863829 42.6829617,2.33180482 42.7368032,2.35266329 C42.770662,2.36565955 42.8001964,2.3881101 42.8219867,2.41741549 C42.8393017,2.44473075 42.8481128,2.4766919 42.8472755,2.50914777 L42.8472755,3.04874944 C43.0691169,2.79581915 43.3320067,2.58320855 43.6245745,2.4201135 C43.878178,2.28312132 44.1610844,2.21132175 44.4484582,2.21101785 C44.7228858,2.20157198 44.995875,2.25506414 45.247053,2.36750233 C45.45265,2.46437319 45.6317652,2.61071601 45.7688017,2.79378765 C45.9051844,2.98254109 46.0025207,3.19728478 46.0549648,3.42512161 C46.1181521,3.71014953 46.1476414,4.00178721 46.1428102,4.2938803 L46.1428102,7.17805123 L46.1428102,7.17940024 Z" id="Shape"></path>
                            <path d="M51.5705932,2.83290877 C51.5772693,2.95926063 51.5577736,3.08562966 51.5133606,3.20388492 C51.495659,3.26664059 51.4438146,3.31340654 51.3802614,3.32394629 L50.8385479,3.32394629 C50.9128156,3.40545944 50.9682798,3.50268355 51.0009289,3.60858618 C51.0338399,3.71603647 51.0504451,3.8279328 51.0501756,3.9404412 C51.0549381,4.18857933 51.0096461,4.43508879 50.9170764,4.66485645 C50.8321777,4.87269219 50.7004425,5.05749212 50.5324199,5.20445812 C50.3552789,5.35514555 50.1496603,5.46760877 49.9281498,5.53496414 C49.6726541,5.61271439 49.4069436,5.65047188 49.1402029,5.64693149 C48.9973305,5.64746338 48.8550146,5.62886615 48.7169476,5.59162232 C48.6071558,5.56365037 48.5024676,5.51811174 48.4068266,5.4567219 C48.3632775,5.50563469 48.326146,5.56004525 48.2963543,5.6186024 C48.2631775,5.68311852 48.2462596,5.75494991 48.2471077,5.82769805 C48.2470389,5.92796856 48.2971549,6.02142994 48.3802068,6.07591482 C48.4899802,6.14779965 48.6182072,6.18533389 48.7488914,6.18383515 L49.8695862,6.22565428 C50.1067722,6.23187513 50.3421362,6.26951693 50.5696877,6.33762163 C50.7575326,6.39258453 50.9329642,6.484237 51.0861123,6.60742246 C51.2233348,6.72106048 51.3330618,6.86503617 51.4068813,7.02831177 C51.4831304,7.20465873 51.5208173,7.3956432 51.5173536,7.5881485 C51.5184841,7.81414962 51.4674335,8.03728479 51.3682825,8.23971752 C51.2623092,8.45072632 51.1080558,8.63297 50.9184074,8.77122517 C50.6908559,8.93471618 50.4361233,9.05535248 50.1663973,9.12736227 C49.821972,9.2216129 49.4663174,9.26701186 49.1095901,9.26226269 C48.7722447,9.26759211 48.4353199,9.23593129 48.1046916,9.16783239 C47.8647888,9.11950092 47.6344897,9.0310582 47.423224,8.90612558 C47.2604894,8.80907168 47.1266638,8.66924007 47.0359055,8.50142433 C46.9547741,8.34413072 46.9131721,8.16898393 46.9147853,7.99150075 C46.9141851,7.87979758 46.9289686,7.76855603 46.958708,7.66099473 C46.9896174,7.55514325 47.0343821,7.45396696 47.0918071,7.3601668 C47.1514357,7.26270021 47.2215169,7.17221656 47.3007728,7.09036596 C47.3882339,6.99889297 47.4830623,6.91496443 47.5842739,6.83945118 C47.2968611,6.68900074 47.1172902,6.38757766 47.1197579,6.05972677 C47.1155404,5.86372178 47.1613902,5.6699406 47.2528571,5.49719203 C47.3479153,5.32522753 47.4702231,5.17027371 47.6148867,5.03853061 C47.4916197,4.91211511 47.3935551,4.76279853 47.3260616,4.59875524 C47.2478251,4.39563412 47.2107082,4.17863567 47.2169203,3.96067627 C47.2128416,3.7099269 47.2613859,3.46116176 47.3593364,3.23086501 C47.4515892,3.02338024 47.5879389,2.8391203 47.7586338,2.69126334 C47.9357007,2.53827713 48.1411469,2.42269761 48.3629039,2.35131428 C48.6132528,2.27041755 48.8747948,2.23079197 49.1375409,2.23395092 C49.276363,2.23346422 49.4150723,2.24202558 49.5528102,2.259582 C49.6776449,2.27527444 49.8012727,2.29961346 49.9228258,2.33242822 L51.3869164,2.33242822 C51.4530365,2.33758937 51.5094161,2.38298297 51.5293325,2.44709358 C51.5684103,2.57160666 51.5824408,2.70280111 51.5705932,2.83290877 Z M50.207658,7.66504174 C50.2143865,7.51929722 50.1431912,7.38116461 50.0213192,7.30350862 C49.8665098,7.21157422 49.6896069,7.16488229 49.5102185,7.1686082 L48.5851795,7.14297712 C48.5072942,7.19900466 48.4354658,7.26321375 48.3708899,7.33453572 C48.3210813,7.38853461 48.2765099,7.44726158 48.2377907,7.50990626 C48.2072038,7.55975477 48.1851534,7.61448643 48.1725721,7.67178676 C48.1620369,7.72508756 48.1566873,7.7793075 48.1566002,7.83366726 C48.1567615,8.00898881 48.2621678,8.16656712 48.4227985,8.23162349 C48.6545723,8.33360205 48.9065039,8.37977584 49.1588368,8.36652391 C49.3263176,8.37007319 49.493454,8.3496364 49.6552966,8.30581872 C49.7725283,8.2741046 49.88274,8.22008416 49.9800585,8.14663623 C50.0562576,8.08869966 50.1167072,8.01211501 50.1557493,7.92405054 C50.1902566,7.84219227 50.2079198,7.75405805 50.207658,7.66504174 Z M49.902861,3.9377432 C49.9245652,3.7196823 49.8480655,3.50333229 49.6946442,3.34888179 C49.5412229,3.1944313 49.3272497,3.11835992 49.1122521,3.14183073 C48.9970988,3.13962352 48.8827891,3.1621512 48.7768422,3.20793194 C48.6848777,3.24843313 48.6030188,3.30927538 48.5372638,3.38600049 C48.4732105,3.46081982 48.4247654,3.54800804 48.3948477,3.64231128 C48.3636275,3.74314475 48.3479151,3.84824999 48.348263,3.95393125 C48.3374411,4.16227108 48.4121094,4.3658715 48.5545667,4.51646599 C48.7103101,4.66117667 48.9173155,4.73565566 49.128224,4.72286363 C49.2448668,4.72534104 49.3607901,4.70377024 49.4689578,4.65946043 C49.5605186,4.62072343 49.6423751,4.56172665 49.7085362,4.4867879 C49.7728837,4.41274503 49.8221846,4.32656156 49.8536143,4.23317511 C49.8857504,4.13852719 49.9023858,4.03918649 49.902861,3.9390922 L49.902861,3.9377432 Z" id="Shape"></path>
                        </g>
                    </g>
                </g>
            </g>
        </g>
    </g>
</svg>