<?xml version="1.0" encoding="utf-8"?>
<!-- Generator: Adobe Illustrator 16.0.4, SVG Export Plug-In . SVG Version: 6.00 Build 0)  -->
<!DOCTYPE svg PUBLIC "-//W3C//DTD SVG 1.1//EN" "http://www.w3.org/Graphics/SVG/1.1/DTD/svg11.dtd">
<svg version="1.1" id="Ebene_1" xmlns="http://www.w3.org/2000/svg" xmlns:xlink="http://www.w3.org/1999/xlink" x="0px" y="0px"
	 width="370px" height="156px" viewBox="0 0 370 156" enable-background="new 0 0 370 156" xml:space="preserve">
<g>
	<g>
		<polygon fill="#F2F2F2" points="66.516,84 53.115,60.5 66.516,37 93.318,37 106.719,60.5 93.318,84 		"/>
		<polygon fill="#F2F2F2" points="19.516,56 6.115,32.5 19.516,9 46.318,9 59.719,32.5 46.318,56 		"/>
		<polygon fill="#F2F2F2" points="19.516,112 6.115,88.5 19.516,65 46.318,65 59.719,88.5 46.318,112 		"/>
	</g>
	<g>
		<path fill="#F2F2F2" d="M97.908,125.113c0,0.898-0.201,1.563-0.601,1.992c-0.4,0.43-0.952,0.645-1.655,0.645H79.744
			c0,1.113,0.132,2.124,0.396,3.032s0.684,1.68,1.26,2.314c0.576,0.635,1.318,1.118,2.227,1.45c0.908,0.333,1.997,0.498,3.267,0.498
			c1.289,0,2.421-0.092,3.398-0.278c0.977-0.186,1.821-0.391,2.534-0.615c0.713-0.224,1.304-0.429,1.772-0.615
			c0.469-0.186,0.85-0.278,1.143-0.278c0.176,0,0.322,0.034,0.439,0.103c0.117,0.069,0.215,0.19,0.293,0.366
			c0.078,0.176,0.132,0.425,0.161,0.747s0.044,0.728,0.044,1.216c0,0.43-0.01,0.796-0.029,1.099
			c-0.02,0.303-0.049,0.562-0.088,0.776c-0.04,0.215-0.098,0.396-0.176,0.542c-0.078,0.146-0.181,0.289-0.308,0.425
			c-0.127,0.137-0.474,0.322-1.04,0.557c-0.567,0.234-1.289,0.464-2.168,0.688s-1.885,0.42-3.018,0.586
			c-1.133,0.166-2.344,0.249-3.633,0.249c-2.325,0-4.361-0.293-6.108-0.879c-1.748-0.586-3.208-1.475-4.38-2.666
			c-1.172-1.191-2.046-2.695-2.622-4.512c-0.576-1.816-0.864-3.945-0.864-6.387c0-2.324,0.303-4.419,0.908-6.284
			c0.605-1.865,1.484-3.447,2.637-4.746c1.152-1.299,2.553-2.29,4.204-2.974c1.65-0.684,3.511-1.025,5.581-1.025
			c2.187,0,4.058,0.322,5.61,0.967s2.827,1.538,3.823,2.681s1.729,2.495,2.197,4.058c0.469,1.563,0.703,3.262,0.703,5.098V125.113z
			 M90.76,123.004c0.059-2.07-0.356-3.696-1.245-4.878c-0.889-1.182-2.261-1.772-4.116-1.772c-0.938,0-1.753,0.176-2.446,0.527
			c-0.693,0.352-1.27,0.825-1.729,1.421c-0.459,0.596-0.811,1.299-1.055,2.109c-0.245,0.811-0.386,1.675-0.425,2.593H90.76z"/>
		<path fill="#F2F2F2" d="M128.758,138.941c0,0.215-0.049,0.396-0.146,0.542c-0.098,0.146-0.264,0.269-0.498,0.366
			s-0.552,0.166-0.952,0.205c-0.4,0.039-0.894,0.059-1.479,0.059c-0.625,0-1.133-0.02-1.523-0.059
			c-0.391-0.04-0.708-0.107-0.952-0.205c-0.245-0.098-0.42-0.22-0.527-0.366c-0.107-0.146-0.161-0.327-0.161-0.542v-2.9
			c-1.348,1.446-2.759,2.568-4.233,3.369c-1.475,0.801-3.11,1.201-4.907,1.201c-1.992,0-3.677-0.386-5.054-1.157
			s-2.5-1.812-3.369-3.12c-0.869-1.308-1.499-2.837-1.89-4.585c-0.391-1.748-0.586-3.589-0.586-5.522
			c0-2.324,0.249-4.414,0.747-6.27c0.498-1.855,1.226-3.438,2.183-4.746c0.957-1.308,2.148-2.314,3.574-3.018
			c1.425-0.703,3.066-1.055,4.922-1.055c1.465,0,2.793,0.298,3.984,0.894c1.191,0.596,2.373,1.47,3.545,2.622v-14.15
			c0-0.195,0.054-0.371,0.161-0.527c0.107-0.156,0.303-0.288,0.586-0.396c0.283-0.107,0.659-0.19,1.128-0.249
			s1.064-0.088,1.787-0.088c0.722,0,1.318,0.029,1.787,0.088s0.839,0.142,1.113,0.249c0.273,0.107,0.469,0.239,0.586,0.396
			c0.117,0.157,0.176,0.333,0.176,0.527V138.941z M121.434,121.48c-1.055-1.328-2.065-2.344-3.032-3.047s-1.978-1.055-3.032-1.055
			c-0.957,0-1.783,0.239-2.476,0.718c-0.693,0.479-1.25,1.118-1.67,1.919c-0.42,0.801-0.732,1.695-0.938,2.681
			c-0.205,0.986-0.308,1.997-0.308,3.032c0,1.094,0.088,2.158,0.264,3.193c0.176,1.036,0.464,1.958,0.864,2.769
			c0.4,0.811,0.933,1.46,1.597,1.948c0.664,0.488,1.504,0.732,2.52,0.732c0.508,0,1-0.073,1.479-0.22
			c0.479-0.146,0.967-0.385,1.465-0.718c0.498-0.332,1.011-0.766,1.538-1.304c0.527-0.537,1.103-1.196,1.729-1.978V121.48z"/>
		<path fill="#F2F2F2" d="M160.955,138.941c0,0.195-0.049,0.366-0.146,0.513c-0.098,0.146-0.269,0.269-0.513,0.366
			c-0.245,0.098-0.567,0.171-0.967,0.22c-0.4,0.048-0.904,0.073-1.509,0.073c-0.645,0-1.167-0.025-1.567-0.073
			c-0.4-0.049-0.718-0.122-0.952-0.22c-0.234-0.098-0.4-0.22-0.498-0.366c-0.098-0.146-0.146-0.317-0.146-0.513v-3.018
			c-1.446,1.563-2.915,2.735-4.409,3.516s-3.042,1.172-4.644,1.172c-1.797,0-3.306-0.293-4.526-0.879
			c-1.221-0.586-2.208-1.387-2.959-2.402c-0.752-1.015-1.289-2.192-1.611-3.53c-0.322-1.337-0.483-3.003-0.483-4.995v-15.996
			c0-0.195,0.054-0.366,0.161-0.513c0.107-0.146,0.303-0.268,0.586-0.366c0.283-0.098,0.664-0.171,1.143-0.22
			c0.479-0.048,1.069-0.073,1.772-0.073c0.722,0,1.318,0.025,1.787,0.073c0.469,0.049,0.845,0.122,1.128,0.22
			c0.283,0.098,0.483,0.22,0.601,0.366s0.176,0.318,0.176,0.513v14.766c0,1.367,0.088,2.413,0.264,3.135
			c0.176,0.723,0.444,1.343,0.806,1.86c0.361,0.518,0.82,0.918,1.377,1.201c0.557,0.283,1.206,0.425,1.948,0.425
			c0.938,0,1.879-0.341,2.827-1.025c0.947-0.684,1.958-1.68,3.032-2.988v-17.373c0-0.195,0.054-0.366,0.161-0.513
			c0.107-0.146,0.303-0.268,0.586-0.366c0.283-0.098,0.659-0.171,1.128-0.22c0.469-0.048,1.064-0.073,1.787-0.073
			c0.722,0,1.318,0.025,1.787,0.073c0.469,0.049,0.839,0.122,1.113,0.22c0.273,0.098,0.469,0.22,0.586,0.366
			s0.176,0.318,0.176,0.513V138.941z"/>
		<path fill="#F2F2F2" d="M181.316,125.201c0,1.133-0.107,1.924-0.322,2.373c-0.215,0.45-0.557,0.674-1.025,0.674h-12.188
			c-0.488,0-0.84-0.229-1.055-0.688c-0.215-0.458-0.322-1.245-0.322-2.358c0-1.094,0.107-1.865,0.322-2.314
			c0.215-0.449,0.566-0.674,1.055-0.674h12.188c0.234,0,0.435,0.049,0.601,0.146c0.166,0.098,0.308,0.264,0.425,0.498
			s0.2,0.547,0.249,0.938C181.292,124.186,181.316,124.655,181.316,125.201z"/>
		<path fill="#F2F2F2" d="M205.135,131.559c0,1.484-0.278,2.793-0.835,3.926c-0.557,1.133-1.343,2.08-2.358,2.842
			c-1.016,0.762-2.217,1.333-3.604,1.714c-1.387,0.381-2.891,0.571-4.512,0.571c-0.977,0-1.909-0.073-2.798-0.22
			c-0.889-0.146-1.685-0.333-2.388-0.557s-1.289-0.454-1.758-0.688s-0.811-0.454-1.025-0.659c-0.215-0.205-0.381-0.527-0.498-0.967
			s-0.176-1.088-0.176-1.948c0-0.566,0.019-1.021,0.059-1.362c0.039-0.341,0.098-0.615,0.176-0.82
			c0.078-0.205,0.176-0.341,0.293-0.41c0.117-0.068,0.264-0.103,0.439-0.103c0.215,0,0.532,0.122,0.952,0.366
			c0.42,0.245,0.942,0.513,1.567,0.806c0.625,0.293,1.352,0.567,2.183,0.82c0.83,0.254,1.772,0.381,2.827,0.381
			c0.664,0,1.255-0.068,1.772-0.205c0.517-0.136,0.967-0.332,1.348-0.586c0.381-0.253,0.669-0.576,0.864-0.967
			c0.195-0.391,0.293-0.839,0.293-1.348c0-0.586-0.181-1.088-0.542-1.509c-0.362-0.42-0.84-0.786-1.436-1.099
			c-0.596-0.312-1.27-0.605-2.021-0.879c-0.752-0.273-1.523-0.576-2.314-0.908c-0.791-0.332-1.563-0.713-2.314-1.143
			c-0.752-0.429-1.426-0.957-2.021-1.582c-0.596-0.625-1.074-1.377-1.436-2.256c-0.362-0.879-0.542-1.934-0.542-3.164
			c0-1.25,0.244-2.397,0.732-3.442c0.488-1.044,1.191-1.938,2.109-2.681c0.918-0.742,2.036-1.318,3.354-1.729
			s2.798-0.615,4.438-0.615c0.82,0,1.616,0.059,2.388,0.176c0.771,0.117,1.469,0.264,2.095,0.439
			c0.625,0.176,1.152,0.366,1.582,0.571c0.429,0.205,0.737,0.381,0.923,0.527c0.186,0.146,0.317,0.293,0.396,0.439
			c0.078,0.146,0.136,0.322,0.176,0.527c0.039,0.205,0.073,0.459,0.103,0.762c0.029,0.303,0.044,0.679,0.044,1.128
			c0,0.527-0.015,0.957-0.044,1.289c-0.029,0.333-0.078,0.596-0.146,0.791c-0.069,0.195-0.161,0.327-0.278,0.396
			c-0.117,0.069-0.254,0.103-0.41,0.103c-0.176,0-0.45-0.103-0.82-0.308c-0.371-0.205-0.835-0.425-1.392-0.659
			s-1.201-0.454-1.934-0.659s-1.567-0.308-2.505-0.308c-0.664,0-1.241,0.069-1.729,0.205c-0.488,0.137-0.889,0.333-1.201,0.586
			c-0.312,0.254-0.547,0.552-0.703,0.894c-0.157,0.342-0.234,0.708-0.234,1.099c0,0.605,0.186,1.113,0.557,1.523
			c0.371,0.41,0.859,0.772,1.465,1.084c0.605,0.312,1.293,0.605,2.065,0.879c0.771,0.274,1.553,0.571,2.344,0.894
			s1.572,0.699,2.344,1.128c0.771,0.43,1.46,0.957,2.065,1.582c0.605,0.625,1.094,1.373,1.465,2.241
			C204.949,129.337,205.135,130.368,205.135,131.559z"/>
		<path fill="#F2F2F2" d="M235.633,138.941c0,0.195-0.059,0.366-0.176,0.513s-0.312,0.269-0.586,0.366
			c-0.274,0.098-0.649,0.171-1.128,0.22c-0.479,0.048-1.069,0.073-1.772,0.073c-0.723,0-1.323-0.025-1.802-0.073
			c-0.479-0.049-0.854-0.122-1.128-0.22c-0.274-0.098-0.469-0.22-0.586-0.366s-0.176-0.317-0.176-0.513v-14.912
			c0-1.27-0.093-2.266-0.278-2.988c-0.186-0.722-0.454-1.343-0.806-1.86c-0.352-0.517-0.806-0.918-1.362-1.201
			c-0.557-0.283-1.206-0.425-1.948-0.425c-0.938,0-1.885,0.342-2.842,1.025c-0.957,0.684-1.953,1.68-2.988,2.988v17.373
			c0,0.195-0.059,0.366-0.176,0.513s-0.318,0.269-0.601,0.366c-0.283,0.098-0.659,0.171-1.128,0.22
			c-0.469,0.048-1.065,0.073-1.787,0.073c-0.723,0-1.318-0.025-1.787-0.073c-0.469-0.049-0.845-0.122-1.128-0.22
			c-0.283-0.098-0.483-0.22-0.601-0.366s-0.176-0.317-0.176-0.513v-38.525c0-0.195,0.059-0.371,0.176-0.527
			c0.117-0.156,0.317-0.288,0.601-0.396c0.283-0.107,0.659-0.19,1.128-0.249s1.064-0.088,1.787-0.088
			c0.722,0,1.318,0.029,1.787,0.088s0.845,0.142,1.128,0.249c0.283,0.107,0.483,0.239,0.601,0.396
			c0.117,0.157,0.176,0.333,0.176,0.527v14.443c1.27-1.25,2.563-2.183,3.882-2.798s2.69-0.923,4.116-0.923
			c1.777,0,3.276,0.293,4.497,0.879c1.22,0.586,2.207,1.387,2.959,2.402c0.751,1.016,1.293,2.202,1.626,3.56
			c0.332,1.358,0.498,3.003,0.498,4.937V138.941z"/>
		<path fill="#F2F2F2" d="M265.135,139.029c0,0.274-0.098,0.488-0.293,0.645c-0.195,0.157-0.503,0.268-0.923,0.337
			c-0.42,0.068-1.04,0.103-1.86,0.103c-0.879,0-1.519-0.034-1.919-0.103c-0.4-0.069-0.684-0.18-0.85-0.337
			c-0.166-0.156-0.249-0.371-0.249-0.645v-2.08c-1.074,1.153-2.3,2.051-3.677,2.695s-2.905,0.967-4.585,0.967
			c-1.387,0-2.662-0.181-3.823-0.542c-1.162-0.361-2.168-0.898-3.018-1.611c-0.85-0.713-1.509-1.597-1.978-2.651
			s-0.703-2.285-0.703-3.691c0-1.523,0.297-2.846,0.894-3.97c0.596-1.123,1.484-2.051,2.666-2.783
			c1.182-0.732,2.651-1.274,4.409-1.626s3.798-0.527,6.123-0.527h2.549v-1.582c0-0.82-0.083-1.538-0.249-2.153
			c-0.166-0.615-0.439-1.128-0.82-1.538s-0.889-0.713-1.523-0.908c-0.635-0.195-1.421-0.293-2.358-0.293
			c-1.23,0-2.329,0.137-3.296,0.41c-0.967,0.274-1.821,0.576-2.563,0.908c-0.743,0.333-1.362,0.635-1.86,0.908
			c-0.498,0.274-0.904,0.41-1.216,0.41c-0.215,0-0.406-0.068-0.571-0.205c-0.166-0.136-0.303-0.332-0.41-0.586
			c-0.107-0.253-0.19-0.566-0.249-0.938c-0.059-0.371-0.088-0.781-0.088-1.23c0-0.605,0.048-1.084,0.146-1.436
			c0.098-0.352,0.283-0.669,0.557-0.952c0.273-0.283,0.751-0.596,1.436-0.938c0.684-0.341,1.484-0.659,2.402-0.952
			c0.918-0.293,1.919-0.532,3.003-0.718c1.084-0.186,2.202-0.278,3.354-0.278c2.051,0,3.804,0.201,5.259,0.601
			c1.455,0.4,2.651,1.016,3.589,1.846c0.938,0.831,1.621,1.9,2.051,3.208c0.429,1.309,0.645,2.861,0.645,4.658V139.029z
			 M257.898,127.838h-2.812c-1.191,0-2.208,0.088-3.047,0.264c-0.84,0.176-1.523,0.439-2.051,0.791s-0.913,0.776-1.157,1.274
			c-0.245,0.498-0.366,1.069-0.366,1.714c0,1.094,0.347,1.953,1.04,2.578c0.693,0.625,1.655,0.938,2.886,0.938
			c1.035,0,1.987-0.264,2.856-0.791c0.869-0.527,1.753-1.299,2.651-2.314V127.838z"/>
		<path fill="#F2F2F2" d="M289.275,115.24c0,0.703-0.02,1.279-0.059,1.729c-0.039,0.45-0.098,0.801-0.176,1.055
			c-0.078,0.254-0.181,0.43-0.308,0.527c-0.127,0.098-0.288,0.146-0.483,0.146c-0.156,0-0.332-0.034-0.527-0.103
			c-0.195-0.068-0.415-0.142-0.659-0.22c-0.245-0.078-0.513-0.151-0.806-0.22c-0.293-0.068-0.615-0.103-0.967-0.103
			c-0.41,0-0.82,0.083-1.23,0.249c-0.41,0.166-0.835,0.425-1.274,0.776s-0.898,0.82-1.377,1.406
			c-0.479,0.586-0.992,1.309-1.538,2.168v16.289c0,0.195-0.059,0.366-0.176,0.513s-0.318,0.269-0.601,0.366
			c-0.283,0.098-0.659,0.171-1.128,0.22c-0.469,0.048-1.065,0.073-1.787,0.073c-0.723,0-1.318-0.025-1.787-0.073
			c-0.469-0.049-0.845-0.122-1.128-0.22c-0.283-0.098-0.483-0.22-0.601-0.366s-0.176-0.317-0.176-0.513v-26.133
			c0-0.195,0.048-0.366,0.146-0.513c0.098-0.146,0.273-0.268,0.527-0.366c0.253-0.098,0.581-0.171,0.981-0.22
			c0.4-0.048,0.903-0.073,1.509-0.073c0.625,0,1.143,0.025,1.553,0.073c0.41,0.049,0.728,0.122,0.952,0.22
			c0.224,0.098,0.385,0.22,0.483,0.366c0.098,0.146,0.146,0.318,0.146,0.513v3.252c0.684-0.977,1.328-1.782,1.934-2.417
			c0.605-0.634,1.182-1.138,1.729-1.509c0.546-0.371,1.094-0.63,1.641-0.776c0.546-0.146,1.094-0.22,1.641-0.22
			c0.253,0,0.527,0.015,0.82,0.044s0.596,0.078,0.908,0.146c0.312,0.069,0.586,0.146,0.82,0.234s0.405,0.181,0.513,0.278
			c0.107,0.098,0.186,0.205,0.234,0.322s0.093,0.278,0.132,0.483s0.068,0.513,0.088,0.923S289.275,114.537,289.275,115.24z"/>
		<path fill="#F2F2F2" d="M301.756,103.961c0,1.484-0.303,2.51-0.908,3.076c-0.605,0.567-1.729,0.85-3.369,0.85
			c-1.66,0-2.778-0.273-3.354-0.82c-0.576-0.546-0.864-1.533-0.864-2.959c0-1.484,0.298-2.515,0.894-3.091
			c0.596-0.576,1.724-0.864,3.384-0.864c1.641,0,2.754,0.278,3.34,0.835S301.756,102.536,301.756,103.961z M301.199,138.941
			c0,0.195-0.059,0.366-0.176,0.513s-0.317,0.269-0.601,0.366c-0.283,0.098-0.659,0.171-1.128,0.22
			c-0.469,0.048-1.064,0.073-1.787,0.073s-1.318-0.025-1.787-0.073c-0.469-0.049-0.845-0.122-1.128-0.22
			c-0.283-0.098-0.483-0.22-0.601-0.366s-0.176-0.317-0.176-0.513v-26.074c0-0.195,0.059-0.366,0.176-0.513s0.317-0.273,0.601-0.381
			c0.283-0.107,0.659-0.19,1.128-0.249s1.064-0.088,1.787-0.088s1.318,0.029,1.787,0.088s0.845,0.142,1.128,0.249
			c0.283,0.107,0.483,0.234,0.601,0.381s0.176,0.318,0.176,0.513V138.941z"/>
		<path fill="#F2F2F2" d="M333.514,138.941c0,0.195-0.059,0.366-0.176,0.513s-0.312,0.269-0.586,0.366
			c-0.273,0.098-0.649,0.171-1.128,0.22c-0.479,0.048-1.069,0.073-1.772,0.073c-0.723,0-1.323-0.025-1.802-0.073
			c-0.479-0.049-0.854-0.122-1.128-0.22c-0.273-0.098-0.469-0.22-0.586-0.366s-0.176-0.317-0.176-0.513v-14.912
			c0-1.27-0.093-2.266-0.278-2.988c-0.186-0.722-0.454-1.343-0.806-1.86c-0.352-0.517-0.806-0.918-1.362-1.201
			c-0.557-0.283-1.206-0.425-1.948-0.425c-0.938,0-1.885,0.342-2.842,1.025c-0.957,0.684-1.953,1.68-2.988,2.988v17.373
			c0,0.195-0.059,0.366-0.176,0.513s-0.317,0.269-0.601,0.366c-0.283,0.098-0.659,0.171-1.128,0.22
			c-0.469,0.048-1.064,0.073-1.787,0.073s-1.318-0.025-1.787-0.073c-0.469-0.049-0.845-0.122-1.128-0.22
			c-0.283-0.098-0.483-0.22-0.601-0.366s-0.176-0.317-0.176-0.513v-26.133c0-0.195,0.049-0.366,0.146-0.513s0.273-0.268,0.527-0.366
			c0.254-0.098,0.581-0.171,0.981-0.22c0.4-0.048,0.903-0.073,1.509-0.073c0.625,0,1.143,0.025,1.553,0.073
			c0.41,0.049,0.728,0.122,0.952,0.22c0.225,0.098,0.386,0.22,0.483,0.366s0.146,0.318,0.146,0.513v3.018
			c1.445-1.562,2.915-2.734,4.409-3.516c1.494-0.781,3.052-1.172,4.673-1.172c1.777,0,3.276,0.293,4.497,0.879
			s2.207,1.382,2.959,2.388c0.752,1.006,1.294,2.183,1.626,3.53s0.498,2.969,0.498,4.863V138.941z"/>
		<path fill="#F2F2F2" d="M364.305,114.625c0,0.938-0.107,1.631-0.322,2.08c-0.215,0.45-0.479,0.674-0.791,0.674h-3.076
			c0.43,0.469,0.737,1.001,0.923,1.597c0.186,0.596,0.278,1.216,0.278,1.86c0,1.523-0.254,2.876-0.762,4.058
			c-0.508,1.182-1.235,2.178-2.183,2.988c-0.947,0.811-2.09,1.426-3.428,1.846c-1.338,0.42-2.827,0.63-4.468,0.63
			c-0.84,0-1.641-0.103-2.402-0.308s-1.348-0.444-1.758-0.718c-0.234,0.254-0.444,0.557-0.63,0.908s-0.278,0.743-0.278,1.172
			c0,0.567,0.249,1.03,0.747,1.392c0.498,0.362,1.196,0.562,2.095,0.601l6.357,0.234c1.484,0.059,2.808,0.269,3.97,0.63
			c1.162,0.362,2.139,0.869,2.93,1.523c0.791,0.655,1.396,1.44,1.816,2.358c0.42,0.918,0.63,1.963,0.63,3.135
			c0,1.289-0.283,2.505-0.85,3.647s-1.416,2.134-2.549,2.974c-1.133,0.839-2.554,1.504-4.263,1.992
			c-1.709,0.488-3.706,0.732-5.991,0.732c-2.227,0-4.126-0.176-5.698-0.527s-2.861-0.84-3.867-1.465
			c-1.006-0.625-1.738-1.373-2.197-2.241c-0.459-0.869-0.688-1.821-0.688-2.856c0-0.645,0.083-1.26,0.249-1.846
			s0.41-1.147,0.732-1.685s0.718-1.05,1.187-1.538c0.469-0.488,1.006-0.957,1.611-1.406c-0.84-0.449-1.489-1.059-1.948-1.831
			c-0.459-0.771-0.688-1.616-0.688-2.534c0-1.152,0.264-2.202,0.791-3.149c0.527-0.947,1.211-1.802,2.051-2.563
			c-0.684-0.684-1.23-1.504-1.641-2.461c-0.41-0.957-0.615-2.148-0.615-3.574c0-1.523,0.269-2.886,0.806-4.087
			s1.284-2.216,2.241-3.047c0.957-0.83,2.1-1.465,3.428-1.904s2.793-0.659,4.395-0.659c0.82,0,1.606,0.049,2.358,0.146
			c0.752,0.098,1.45,0.234,2.095,0.41h8.291c0.332,0,0.601,0.215,0.806,0.645C364.202,112.887,364.305,113.61,364.305,114.625z
			 M356.57,141.666c0-0.879-0.352-1.553-1.055-2.021s-1.67-0.722-2.9-0.762l-5.244-0.146c-0.508,0.371-0.913,0.728-1.216,1.069
			s-0.547,0.669-0.732,0.981c-0.186,0.312-0.308,0.615-0.366,0.908s-0.088,0.596-0.088,0.908c0,0.977,0.493,1.718,1.479,2.227
			c0.986,0.508,2.378,0.762,4.175,0.762c1.113,0,2.051-0.113,2.812-0.337c0.762-0.225,1.377-0.523,1.846-0.894
			c0.469-0.371,0.801-0.787,0.996-1.245C356.473,142.657,356.57,142.174,356.57,141.666z M354.842,120.807
			c0-1.406-0.391-2.5-1.172-3.281c-0.781-0.781-1.885-1.172-3.311-1.172c-0.723,0-1.357,0.122-1.904,0.366
			c-0.547,0.245-1.001,0.576-1.362,0.996c-0.361,0.42-0.63,0.908-0.806,1.465s-0.264,1.138-0.264,1.743
			c0,1.329,0.391,2.378,1.172,3.149c0.781,0.772,1.865,1.157,3.252,1.157c0.742,0,1.387-0.117,1.934-0.352s1.001-0.557,1.362-0.967
			s0.635-0.883,0.82-1.421C354.749,121.954,354.842,121.393,354.842,120.807z"/>
	</g>
</g>
</svg>
