<?xml version="1.0" encoding="UTF-8"?>
<svg width="100px" height="75px" viewBox="0 0 100 75" version="1.1" xmlns="http://www.w3.org/2000/svg" xmlns:xlink="http://www.w3.org/1999/xlink">
    <!-- Generator: Sketch 41.2 (35397) - http://www.bohemiancoding.com/sketch -->
    <title>link</title>
    <desc>Created with Sketch.</desc>
    <defs></defs>
    <g id="Page-1" stroke="none" stroke-width="1" fill="none" fill-rule="evenodd">
        <g id="Link-speichern" transform="translate(-22.000000, -138.000000)">
            <g id="link" transform="translate(22.000000, 138.000000)">
                <g id="Ebene_1">
                    <rect id="Rectangle-path" fill="#71B5B5" x="0" y="0" width="100" height="75"></rect>
                    <ellipse id="Oval" fill="#FFFFFF" cx="50" cy="37.5" rx="15.45" ry="15.45"></ellipse>
                    <path d="M55.15,32.35 L55.15,32.35 C54,31.2 52.2,31.2 51.1,32.3 L48.55,34.85 C47.45,35.95 47.45,37.75 48.55,38.85 L48.6,38.9 C48.7,39 48.8,39.05 48.9,39.15 L49.85,38.2 C49.75,38.15 49.65,38.05 49.55,37.95 L49.5,37.95 C48.9,37.35 48.9,36.4 49.5,35.8 L52.05,33.25 C52.65,32.65 53.6,32.65 54.2,33.25 L54.2,33.25 L54.25,33.3 C54.85,33.9 54.85,34.85 54.25,35.45 L53.1,36.6 C53.3,37.1 53.4,37.6 53.4,38.15 L55.2,36.4 C56.25,35.25 56.25,33.45 55.15,32.35 L55.15,32.35 Z M51.4,36.05 C51.3,35.95 51.2,35.9 51.1,35.8 L50.15,36.75 C50.25,36.8 50.35,36.9 50.45,37 L50.5,37 C51.1,37.6 51.1,38.55 50.5,39.15 L47.95,41.7 C47.35,42.3 46.4,42.3 45.8,41.7 L45.75,41.65 C45.15,41.05 45.15,40.1 45.75,39.5 L46.9,38.35 C46.7,37.85 46.6,37.35 46.6,36.8 L44.8,38.6 C43.7,39.7 43.7,41.5 44.8,42.6 L44.85,42.65 C45.95,43.75 47.75,43.75 48.85,42.65 L51.4,40.1 C52.55,39 52.55,37.2 51.4,36.05 L51.4,36.05 L51.4,36.05 L51.4,36.05 Z" id="Shape" fill="#71B5B5"></path>
                </g>
            </g>
        </g>
    </g>
</svg>