<svg xmlns="http://www.w3.org/2000/svg" width="300.1" height="681" viewBox="0 0 300.1 681">
  <title>Element 2</title>
  <g id="5beddf49-a0a4-4a9e-ab54-7dc863bb039c" data-name="Ebene 2">
    <g id="9dec9bc0-f49b-46a9-8afd-236c6fa95461" data-name="Ebene 1">
      <g>
        <rect y="161.97" width="300.1" height="519.03" rx="24.9" ry="24.9" style="fill: #2a2a35"/>
        <rect x="17.79" y="214.52" width="264.52" height="393.41" style="fill: #fff"/>
        <rect x="109.23" y="186.86" width="81.64" height="9.17" rx="4.16" ry="4.16" style="fill: #595661"/>
        <rect x="94.75" y="186.86" width="9.49" height="9.17" rx="4.16" ry="4.16" style="fill: #595661"/>
      </g>
      <g>
        <path d="M154.57,389.58a11.93,11.93,0,0,1-9,0L95.89,365.93c-2.48-1.18-2.48-3.12,0-4.3L145.54,338a11.93,11.93,0,0,1,9,0l49.65,23.65c2.48,1.18,2.48,3.12,0,4.3Z" style="fill: #315674"/>
        <path d="M154.57,370.65a11.93,11.93,0,0,1-9,0L95.89,347c-2.48-1.18-2.48-3.12,0-4.3l49.65-23.65a11.93,11.93,0,0,1,9,0l49.65,23.65c2.48,1.18,2.48,3.12,0,4.3Z" style="fill: #4f7899"/>
        <path d="M154.57,351.72a11.93,11.93,0,0,1-9,0L95.89,328.08c-2.48-1.18-2.48-3.12,0-4.3l49.65-23.65a11.93,11.93,0,0,1,9,0l49.65,23.65c2.48,1.18,2.48,3.12,0,4.3Z" style="fill: #9fbfd3"/>
        <g>
          <path id="8da2ba86-e436-41ae-958f-614204578ec6" data-name="Fill-12" d="M153.64,331.84,151.93,325l10.13-5,11.85,1.84,1.72,6.86-10.13,5-11.85-1.84" style="fill: #fff"/>
          <path id="f708a18c-55c8-4e4a-b5c6-675e7b031599" data-name="Fill-13" d="M137.87,321.55l-1.72-6.85,10.14-5,11.85,1.84,1.72,6.86-10.13,5-11.85-1.84" style="fill: #fff"/>
          <path id="dae7d613-43f4-4cb1-ba0e-87d2f1e50475" data-name="Fill-14" d="M128.61,335.7l-1.72-6.86,10.13-5,11.85,1.84,1.72,6.85-10.14,5-11.85-1.84" style="fill: #fff"/>
        </g>
      </g>
      <g>
        <circle cx="235.67" cy="62.15" r="62.15" style="fill: #fff"/>
        <g>
          <path d="M232.39,69.1a3.33,3.33,0,0,1-2.37-1,15.72,15.72,0,0,1,0-22.2l12.35-12.35a15.7,15.7,0,1,1,22.2,22.2l-5.65,5.65a3.35,3.35,0,1,1-4.73-4.73L259.84,51a9,9,0,1,0-12.74-12.74L234.75,50.65a9,9,0,0,0,0,12.74,3.35,3.35,0,0,1-2.37,5.71Z" style="fill: #315674"/>
          <path d="M220.53,93.3a15.7,15.7,0,0,1-11.1-26.8l5.65-5.65a3.35,3.35,0,0,1,4.73,4.73l-5.65,5.65A9,9,0,1,0,226.9,84l12.35-12.35a9,9,0,0,0,0-12.74A3.35,3.35,0,1,1,244,54.15a15.72,15.72,0,0,1,0,22.2L231.63,88.71a15.6,15.6,0,0,1-11.1,4.6Z" style="fill: #315674"/>
        </g>
      </g>
      <g>
        <circle cx="63.92" cy="62.15" r="62.15" style="fill: #fff"/>
        <path d="M52.13,64.57A13.59,13.59,0,1,0,65.72,51,13.59,13.59,0,0,0,52.13,64.57ZM95,41.56H80.36c-1-4.18-2.09-8.37-6.27-8.37H57.35c-4.18,0-5.23,4.18-6.27,8.37H36.44a4.2,4.2,0,0,0-4.18,4.18V83.39a4.2,4.2,0,0,0,4.18,4.18H95a4.2,4.2,0,0,0,4.18-4.18V45.75A4.2,4.2,0,0,0,95,41.56ZM65.72,83.13A18.56,18.56,0,1,1,84.28,64.57,18.56,18.56,0,0,1,65.72,83.13ZM95,54.11H86.63V49.93H95Z" style="fill: #315674"/>
      </g>
      <g>
        <path d="M183.32,248.74,154.55,277.5a7,7,0,0,1-9.9,0l-28.76-28.76" style="fill: none;stroke: #54af91;stroke-linecap: round;stroke-miterlimit: 10;stroke-width: 11px"/>
        <line x1="149.61" y1="279.84" x2="149.61" y2="71.98" style="fill: none;stroke: #54af91;stroke-linecap: round;stroke-miterlimit: 10;stroke-width: 11px"/>
      </g>
    </g>
  </g>
</svg>
